<?xml version="1.0" standalone="no"?>
<!DOCTYPE svg PUBLIC "-//W3C//DTD SVG 1.1//EN"
"http://www.w3.org/Graphics/SVG/1.1/DTD/svg11.dtd">
<svg height="20032.381521613643" width="7586.425067231308" version="1.1" xmlns="http://www.w3.org/2000/svg" xmlns:xlink="http://www.w3.org/1999/xlink"><g transform="translate(-794.814619913885 -2228.4004373759963)"><polygon points="6674.262195818025,2228.4004373759963 5993.11252379805,3188.5752762475277 7576.990676808354,4312.882566208211 8381.239687145193,3500.426933316914 8110.421142848095,3040.856070267292 7306.172132511255,2646.9381876533307" stroke-width="1" opacity="0.7" fill="rgb(255, 255, 255)" stroke="rgb(119, 119, 119)" /><polygon points="7653.211649254187,16000.497606217028 8045.801816987184,14955.012920406329 8020.1981103959015,13431.592378225025 7751.359191187436,12565.333638553302 6676.003514353574,12842.707126625528 5545.173139905267,13525.472635726393 4755.725520007392,13828.449830389902 3646.231567718487,14673.372147902222 2664.756148385994,16201.059974515407 2238.0277051979538,17528.185432830214 3735.844540787976,17733.015085560473 4102.8310019296905,16623.521133271566 4388.739058865678,15868.211788828736 4337.531645683112,15573.769163028988 4670.379831369784,15475.62162109574 5033.099008079618,15548.165456437706 5468.36202013142,15420.146923481294 5502.500295586463,15206.782701887272 5314.739780583725,14814.192534154276 5630.518828542875,14805.657965290515 6125.523822641002,14771.519689835472 6394.362741849468,14852.5980940412 6368.759035258185,15420.146923481294 6684.538083217335,15761.529678031726 7486.787556410851,16166.921699060364" stroke-width="1" opacity="0.7" fill="rgb(255, 255, 255)" stroke="rgb(119, 119, 119)" /><polygon points="7709.189429391036,21984.83481851866 7719.8027809476125,20063.81818677838 7629.589292716715,19129.84324979968 7045.854957105028,18869.816136663565 6828.281250195218,19379.25701137922 6531.107406611087,19188.21668336085 6095.959992791465,19437.63044494039 5957.986422555976,18928.189570224735 5650.199227415268,18721.2292148715 5161.985055812766,18625.709050862315 4933.79799734638,18986.563003785905 4806.437778667467,18848.589433550413 5045.2381886904295,18567.335617301145 5045.2381886904295,18280.77512527359 4870.117888006923,18132.188203481524 4668.464208431977,17919.921172350005 4456.197177300454,17766.027574779648 4281.0768766169485,17999.521309024323 4010.4364119242578,18445.282074400522 3904.302896358496,18721.2292148715 3681.4225136703976,18700.00251175835 3713.262568340126,18031.361363694054 3808.782732349311,17755.414223223073 3814.089408127599,17659.89405921389 2200.8599715280284,17463.54705541723 2269.846756645773,18386.908640839352 2773.9809555831393,19872.77785876001 3734.4892714532784,20827.979498851862 4944.411348902956,21724.807705382544 5713.879336754725,22159.955119202164 6918.494738426115,22260.78195898964" stroke-width="1" opacity="0.7" fill="rgb(255, 255, 255)" stroke="rgb(119, 119, 119)" /><polygon points="2975.8583647902788,4887.5960873693975 1283.0287915163867,4065.0613417347495 1049.535057271712,4516.128782889235 794.814619913885,5274.9834191844275 954.014893262527,6819.226070666254 1293.6421430729629,7440.107136725957 1956.9766153589708,7997.308093446202 2912.178255450822,8591.655780614465 3856.766543986097,9032.109870212375 4849.114914525964,9286.830307570199 5607.969550821157,9323.977038018216 6361.517511338063,9377.043795801095 6637.464651809041,8050.37485122908 6462.3443511255355,6405.305359959781 5432.849250137651,6522.052227082119 4907.488348087132,6776.772664439946 4440.500879597783,6744.932609770218 3681.6462433025904,6654.719121539321 3793.08643464664,6150.584922601956 3846.153192429521,5816.264348569808 4122.1003329005,5816.264348569808 4413.967500706343,5524.397180763965 4440.500879597783,4940.662845152277 4090.2602782307717,4691.2490835727385 3310.1789388224265,4977.809575600295 2938.711634342262,5391.730286306763 2694.6045485410114,6086.904813262499 2487.6441931877766,6341.625250620327 2312.523892504271,6118.744867932229 2270.070486277966,5842.797727461249 2254.150458943102,5588.0772901034225 2742.3646305456036,5142.3165247272245" stroke-width="1" opacity="0.7" fill="rgb(255, 255, 255)" stroke="rgb(119, 119, 119)" /></g></svg>